<?xml version="1.0" encoding="UTF-8" standalone="no"?>
<svg
   version="1.1"
   width="610"
   height="145"
   id="svg2"
   sodipodi:docname="logo_docker.svg"
   inkscape:version="1.2.2 (732a01da63, 2022-12-09, custom)"
   xmlns:inkscape="http://www.inkscape.org/namespaces/inkscape"
   xmlns:sodipodi="http://sodipodi.sourceforge.net/DTD/sodipodi-0.dtd"
   xmlns:xlink="http://www.w3.org/1999/xlink"
   xmlns="http://www.w3.org/2000/svg"
   xmlns:svg="http://www.w3.org/2000/svg"
   xmlns:rdf="http://www.w3.org/1999/02/22-rdf-syntax-ns#"
   xmlns:cc="http://creativecommons.org/ns#"
   xmlns:dc="http://purl.org/dc/elements/1.1/">
  <sodipodi:namedview
     id="namedview672"
     pagecolor="#ffffff"
     bordercolor="#000000"
     borderopacity="0.25"
     inkscape:showpageshadow="2"
     inkscape:pageopacity="0.0"
     inkscape:pagecheckerboard="0"
     inkscape:deskcolor="#d1d1d1"
     showgrid="false"
     inkscape:zoom="2.147541"
     inkscape:cx="234.22137"
     inkscape:cy="72.874046"
     inkscape:window-width="1920"
     inkscape:window-height="966"
     inkscape:window-x="0"
     inkscape:window-y="27"
     inkscape:window-maximized="1"
     inkscape:current-layer="svg2" />
  <metadata
     id="metadata4">
    <rdf:RDF>
      <cc:Work
         rdf:about="">
        <dc:format>image/svg+xml</dc:format>
        <dc:type
           rdf:resource="http://purl.org/dc/dcmitype/StillImage" />
      </cc:Work>
    </rdf:RDF>
  </metadata>
  <defs
     id="defs6">
    <clipPath
       id="clipPath8">
      <path
         d="m 76,2 0,46 -22,0 0,23 -18.419263,0 c -0.07818,0.665694 -0.141485,1.332869 -0.205737,2 -1.151162,12.530963 1.036422,24.087546 6.0625,33.96875 L 43.125,110 c 1.011403,1.81678 2.191241,3.52297 3.4375,5.1875 1.244725,1.66248 1.685716,2.58262 2.46875,3.6875 C 62.319911,133.81083 82.129473,141 105,141 155.64836,141 198.63299,118.56201 217.65625,68.15625 231.15302,69.54122 244.09968,66.080358 250,54.5625 240.60137,49.138835 228.52163,50.877226 221.5625,54.375 L 240,2 168,48 145,48 145,2 z"
         id="path10" />
    </clipPath>
  </defs>
  <g
     id="g811">
    <path
       d="m 147.4876,45.732 22.866,0 0,23.37473 11.56177,0 c 5.33905,0 10.83073,-0.95117 15.887,-2.66444 2.48448,-0.84244 5.27317,-2.01479 7.72392,-3.4892 -3.22785,-4.21436 -4.87579,-9.53574 -5.36101,-14.78106 -0.65874,-7.13426 0.78032,-16.42042 5.60897,-22.004216 l 2.40362,-2.780117 2.8642,2.302393 c 7.21138,5.79374 13.27612,13.88934 14.3451,23.11819 8.68312,-2.55411 18.87759,-1.95 26.53135,2.46735 l 3.14002,1.81182 -1.65276,3.2257 C 246.93289,68.946524 233.40077,72.859896 220.17071,72.167411 200.37356,121.4758 157.2729,144.82 105.01356,144.82 c -26.998899,0 -51.769845,-10.09272 -65.875552,-34.04693 -0.827018,-1.48798 -1.535233,-3.0439 -2.286326,-4.57212 C 32.083548,95.656747 30.499883,84.105687 31.574226,72.564267 l 0.32241,-3.457072 19.552937,0 0,-23.37473 22.866,0 0,-22.866 45.732,0 0,-22.866 27.43967,0 0,45.732"
       id="path14"
       style="fill:#394d54" />
    <g
       clip-path="url(#clipPath8)"
       id="g16">
      <g
         id="g18">
        <g
           transform="translate(0,-22.866)"
           id="g20">
          <path
             d="m 123.85901,3.8110794 19.81751,0 0,19.8169706 -19.81751,0 z"
             id="path22"
             style="fill:#00acd3" />
          <path
             d="m 123.85901,26.676485 19.81751,0 0,19.818043 -19.81751,0 z"
             id="path24"
             style="fill:#20c2ef" />
          <path
             d="m 126.29235,21.976904 0,-16.5157492 m 2.97185,16.5157492 0,-16.5157492 m 3.00184,16.5157492 0,-16.5157492 m 3.00344,16.5157492 0,-16.5157492 m 3.00292,16.5157492 0,-16.5157492 m 2.97131,16.5157492 0,-16.5157492"
             id="path26"
             style="stroke:#394d54;stroke-width:1.56" />
          <use
             transform="translate(0,22.866)"
             id="use28"
             xlink:href="#path26" />
        </g>
        <use
           transform="matrix(1,0,0,-1,22.866,4.572651)"
           id="use30"
           xlink:href="#g20" />
      </g>
      <use
         transform="translate(-91.464,45.732)"
         id="use32"
         xlink:href="#g18" />
      <use
         transform="translate(-45.732,45.732)"
         id="use34"
         xlink:href="#g18" />
      <use
         transform="translate(0,45.732)"
         id="use36"
         xlink:href="#g18" />
    </g>
    <path
       d="m 221.57014,54.379649 c 1.53332,-11.915247 -7.38383,-21.274779 -12.91407,-25.71836 -6.37269,7.367765 -7.36295,26.677556 2.63498,34.807431 -5.57952,4.956117 -17.33731,9.448435 -29.37574,9.448435 L 34,72.917155 C 32.829255,85.484184 34,146 34,146 l 217,0 -0.98657,-91.424 c -9.39863,-5.423665 -21.48419,-3.694326 -28.44332,-0.196552"
       clip-path="url(#clipPath8)"
       id="path38"
       style="fill:#17b5eb" />
    <path
       d="m 34,89 0,57 217,0 0,-57"
       clip-path="url(#clipPath8)"
       id="path40"
       style="fill-opacity:0.17" />
    <path
       d="M 111.23736,140.88997 C 97.697741,134.4648 90.265707,125.73081 86.130611,116.19562 L 45,118 l 21,28 45.23736,-5.11003"
       clip-path="url(#clipPath8)"
       id="path42"
       style="fill:#d4edf1" />
    <path
       d="m 222.5,53.9375 0,0.03125 c -20.86119,26.889144 -50.78312,50.37872 -82.90625,62.71875 -28.65478,11.00767 -53.638381,11.06039 -70.875,2.21875 -1.85607,-1.04832 -3.675701,-2.21152 -5.5,-3.3125 C 50.582097,106.76175 43.464274,92.152308 44.0625,72.90625 L 34,72.90625 34,146 l 217,0 0,-96 -25,0 z"
       clip-path="url(#clipPath8)"
       id="path44"
       style="fill-opacity:0.085" />
    <path
       d="m 45.625,117.03125 c 14.165153,0.77531 29.28245,0.91433 42.46875,-3.21875"
       id="path46"
       style="fill:none;stroke:#394d54;stroke-width:3.4;stroke-linecap:round" />
    <path
       d="m 102.17024,106.95926 c 0,3.01898 -2.447529,5.46651 -5.466508,5.46651 -3.019514,0 -5.467581,-2.44753 -5.467581,-5.46651 0,-3.01897 2.448067,-5.46758 5.467581,-5.46758 3.018979,0 5.466508,2.44861 5.466508,5.46758 z"
       id="path48"
       style="fill:#d4edf1" />
    <path
       d="m 98.121372,103.30778 c -0.477188,0.27582 -0.800133,0.79264 -0.800133,1.3839 0,0.88261 0.715514,1.59706 1.598125,1.59706 0.604653,0 1.130046,-0.3358 1.401576,-0.83174 0.19173,0.4622 0.29831,0.96991 0.29831,1.50226 0,2.16208 -1.752907,3.91498 -3.915518,3.91498 -2.162075,0 -3.91605,-1.7529 -3.91605,-3.91498 0,-2.16314 1.753975,-3.91658 3.91605,-3.91658 0.500218,0 0.977406,0.0943 1.41764,0.2651 z"
       id="path50"
       style="fill:#394d54" />
    <path
       d="m 0,90.162343 254.32743,0 c -5.53774,-1.404786 -17.521,-3.302293 -15.54477,-10.559732 -10.06915,11.651749 -34.35274,8.174326 -40.4812,2.428786 -6.82471,9.89831 -46.55451,6.135967 -49.32553,-1.575096 -8.55565,10.04077 -35.06718,10.04077 -43.62336,0 -2.77209,7.711063 -42.501357,11.473406 -49.326595,1.575096 C 49.897506,87.776937 25.616067,91.25436 15.545841,79.602611 17.522075,86.86005 5.5388117,88.757557 0,90.162343"
       id="path52"
       style="fill:#394d54" />
  </g>
</svg>
